# xmcd CD database file
# Copyright 1993-1996 (C) Ti Kan
#
# Track frame offsets:
#    182
#    19105
#    37610
#    57447
#    77710
#    99417
#    120337
#    136840
#    156757
#    177652
#    196167
#    210207
#
# Disc length: 2892 seconds
#
# Revision: 0
# Processed by: cddbd v1.4b41PL1 Copyright (c) Steve Scherf et al.
# Submitted via: MyCDplayer 2.3.1  (wjohn@fix.net)
#
DISCID=8c0b4a0c
DTITLE=Shania Twain - 
DTITLE=The Woman In Me
DYEAR=1900
DGENRE=
TTITLE0=Home Ain't Where His Heart Is Anymore
TTITLE1=Any Man Of Mine
TTITLE2=Whose Bed Have Your Boots Been Under
TTITLE3=If You're Not In It For Love, I'm Outta Here!
TTITLE4=The Woman In Me
TTITLE5=Is There Life After Love?
TTITLE6=If It Don't Take Two
TTITLE7=You Win My Love
TTITLE8=Raining On Our Love
TTITLE9=Leaving Is The Only Way Out
TTITLE10=No One Needs To Know
TTITLE11=God Bless The Child
EXTD=
EXTT0=
EXTT1=
EXTT2=
EXTT3=
EXTT4=
EXTT5=
EXTT6=
EXTT7=
EXTT8=
EXTT9=
EXTT10=
EXTT11=
PLAYORDER=
